<?xml version="1.0" encoding="UTF-8"?>
<svg version="1.1" xmlns="http://www.w3.org/2000/svg" width="512" height="512">
<path d="M0 0 C8.58 0 17.16 0 26 0 C26 7.92 26 15.84 26 24 C33.92 24 41.84 24 50 24 C50.495 24.99 50.495 24.99 51 26 C51.33 26 51.66 26 52 26 C52 32.93 52 39.86 52 47 C58.93 47 65.86 47 73 47 C73.33 47.66 73.66 48.32 74 49 C74.33 49 74.66 49 75 49 C75 56.92 75 64.84 75 73 C82.80848837 72.92089359 82.80848837 72.92089359 90.61669922 72.81982422 C92.07100342 72.81233154 92.07100342 72.81233154 93.5546875 72.8046875 C94.54968262 72.79421387 95.54467773 72.78374023 96.56982422 72.77294922 C99 73 99 73 101 75 C101.33 75 101.66 75 102 75 C102 82.26 102 89.52 102 97 C108.93 97 115.86 97 123 97 C123 106.9 123 116.8 123 127 C123.33 117.76 123.66 108.52 124 99 C124.33 99 124.66 99 125 99 C125 106.59 125 114.18 125 122 C132.43453479 121.88146495 132.43453479 121.88146495 139.8684082 121.72973633 C140.79484131 121.72224365 141.72127441 121.71475098 142.67578125 121.70703125 C143.62364502 121.6913208 144.57150879 121.67561035 145.5480957 121.65942383 C148 122 148 122 149.81445312 123.2265625 C151.3476147 125.51999036 151.3454337 126.92230286 151.29296875 129.66796875 C151.28330078 130.56064453 151.27363281 131.45332031 151.26367188 132.37304688 C151.23853516 133.30181641 151.21339844 134.23058594 151.1875 135.1875 C151.17396484 136.12787109 151.16042969 137.06824219 151.14648438 138.03710938 C151.11113096 140.35865038 151.06178674 142.67903653 151 145 C152.02154175 144.97643433 152.02154175 144.97643433 153.0637207 144.95239258 C156.14656281 144.89006778 159.22927244 144.85101742 162.3125 144.8125 C163.38435547 144.78736328 164.45621094 144.76222656 165.56054688 144.73632812 C166.58857422 144.72666016 167.61660156 144.71699219 168.67578125 144.70703125 C170.0975769 144.68346558 170.0975769 144.68346558 171.5480957 144.65942383 C174 145 174 145 175.81445312 146.171875 C177.46269837 148.71348546 177.34081763 150.52848901 177.29296875 153.54296875 C177.28330078 154.61611328 177.27363281 155.68925781 177.26367188 156.79492188 C177.23853516 157.91447266 177.21339844 159.03402344 177.1875 160.1875 C177.17396484 161.31865234 177.16042969 162.44980469 177.14648438 163.61523438 C177.11110305 166.41035882 177.05729579 169.20523889 177 172 C183.93 172 190.86 172 198 172 C198.33 172.66 198.66 173.32 199 174 C199.33 174 199.66 174 200 174 C200 180.6 200 187.2 200 194 C207.92 194 215.84 194 224 194 C224.33 194.99 224.66 195.98 225 197 C225.33 197 225.66 197 226 197 C226.33 204.59 226.66 212.18 227 220 C237.395 220.495 237.395 220.495 248 221 C248.33 221.66 248.66 222.32 249 223 C249.33 223 249.66 223 250 223 C250 230.59 250 238.18 250 246 C257.92 246 265.84 246 274 246 C274.33 254.25 274.66 262.5 275 271 C281.93 271 288.86 271 296 271 C296 288.82 296 306.64 296 325 C263.66 325 231.32 325 198 325 C198 330.94 198 336.88 198 343 C206.58 343 215.16 343 224 343 C224.33 343.66 224.66 344.32 225 345 C225.33 345 225.66 345 226 345 C226 361.17 226 377.34 226 394 C232.93 394 239.86 394 247 394 C247.95471816 396.86415447 248.12651891 398.65130012 248.12939453 401.62329102 C248.13412277 403.02473106 248.13412277 403.02473106 248.13894653 404.45448303 C248.13591019 405.96394753 248.13591019 405.96394753 248.1328125 407.50390625 C248.13376923 408.53813217 248.13472595 409.57235809 248.13571167 410.63792419 C248.13639228 412.82429058 248.1345463 415.01065898 248.13037109 417.19702148 C248.12501577 420.5526175 248.13032293 423.90808 248.13671875 427.26367188 C248.13605805 429.38541696 248.13477707 431.50716197 248.1328125 433.62890625 C248.13483673 434.63724014 248.13686096 435.64557404 248.13894653 436.6844635 C248.13421829 438.08117531 248.13421829 438.08117531 248.12939453 439.50610352 C248.12859894 440.32756363 248.12780334 441.14902374 248.12698364 441.99537659 C248 444 248 444 247 446 C240.07 446 233.14 446 226 446 C226 453.92 226 461.84 226 470 C207.52 470 189.04 470 170 470 C170 462.08 170 454.16 170 446 C163.17879589 446.07908542 163.17879589 446.07908542 156.35791016 446.18017578 C155.51019043 446.1851709 154.6624707 446.19016602 153.7890625 446.1953125 C152.91975098 446.20578613 152.05043945 446.21625977 151.15478516 446.22705078 C149 446 149 446 147 444 C146.67 444 146.34 444 146 444 C146 429.48 146 414.96 146 400 C138.08 400 130.16 400 122 400 C121.67 399.34 121.34 398.68 121 398 C120.67 398 120.34 398 120 398 C120 381.5 120 365 120 348 C114.06 348 108.12 348 102 348 C102.03480469 349.62550781 102.06960937 351.25101562 102.10546875 352.92578125 C102.13360394 355.05467719 102.16090438 357.18358427 102.1875 359.3125 C102.21263672 360.38435547 102.23777344 361.45621094 102.26367188 362.56054688 C102.27333984 363.58857422 102.28300781 364.61660156 102.29296875 365.67578125 C102.3086792 366.62364502 102.32438965 367.57150879 102.34057617 368.5480957 C102 371 102 371 100.81445312 372.81445312 C98.33450314 374.43482949 96.62457401 374.34184377 93.67578125 374.29296875 C92.64775391 374.28330078 91.61972656 374.27363281 90.56054688 374.26367188 C89.48869141 374.23853516 88.41683594 374.21339844 87.3125 374.1875 C86.22904297 374.17396484 85.14558594 374.16042969 84.02929688 374.14648438 C81.35236595 374.11110643 78.67643162 374.06174189 76 374 C76.01047363 374.68626465 76.02094727 375.3725293 76.03173828 376.07958984 C76.07321874 379.17802289 76.09930069 382.27639761 76.125 385.375 C76.14175781 386.45523437 76.15851563 387.53546875 76.17578125 388.6484375 C76.18222656 389.6796875 76.18867188 390.7109375 76.1953125 391.7734375 C76.20578613 392.72653809 76.21625977 393.67963867 76.22705078 394.66162109 C76 397 76 397 74 399 C74 399.33 74 399.66 74 400 C66.74 400 59.48 400 52 400 C52 406.93 52 413.86 52 421 C51.34 421.33 50.68 421.66 50 422 C50 422.33 50 422.66 50 423 C45.97918387 423.03018979 41.95839805 423.04717812 37.9375 423.0625 C36.84244141 423.07087891 35.74738281 423.07925781 34.61914062 423.08789062 C23.02829035 423.12054091 11.62837401 422.50558148 0 422 C0 282.74 0 143.48 0 0 Z M48 50 C48 52.31 48 54.62 48 57 C48.33 57 48.66 57 49 57 C49 54.69 49 52.38 49 50 C48.67 50 48.34 50 48 50 Z M71 76 C72 78 72 78 72 78 Z M98 100 C97.67 100.99 97.34 101.98 97 103 C97.99 103.495 97.99 103.495 99 104 C98.67 102.68 98.34 101.36 98 100 Z M145 148 C145.66 148.66 146.32 149.32 147 150 C147 149.34 147 148.68 147 148 C146.34 148 145.68 148 145 148 Z M102 346 C102 346.33 102 346.66 102 347 C107.94 347 113.88 347 120 347 C120 346.67 120 346.34 120 346 C114.06 346 108.12 346 102 346 Z M196 346 C195.67 346.99 195.34 347.98 195 349 C195.66 349.66 196.32 350.32 197 351 C197 349.35 197 347.7 197 346 C196.67 346 196.34 346 196 346 Z M48 394 C48 397 48 397 48 397 Z " fill="#FDFDFD" transform="translate(108,21)"/>
<path d="M0 0 C8.58 0 17.16 0 26 0 C26 7.92 26 15.84 26 24 C33.92 24 41.84 24 50 24 C50.495 24.99 50.495 24.99 51 26 C51.33 26 51.66 26 52 26 C52 32.93 52 39.86 52 47 C58.93 47 65.86 47 73 47 C73.33 47.66 73.66 48.32 74 49 C74.33 49 74.66 49 75 49 C75 56.92 75 64.84 75 73 C82.80848837 72.92089359 82.80848837 72.92089359 90.61669922 72.81982422 C92.07100342 72.81233154 92.07100342 72.81233154 93.5546875 72.8046875 C94.54968262 72.79421387 95.54467773 72.78374023 96.56982422 72.77294922 C99 73 99 73 101 75 C101.33 75 101.66 75 102 75 C102 82.26 102 89.52 102 97 C108.93 97 115.86 97 123 97 C123 106.57 123 116.14 123 126 C115.08 125.67 107.16 125.34 99 125 C98.67 117.41 98.34 109.82 98 102 C94.31111465 100.15555733 92.91931805 99.72875554 89.015625 99.5859375 C88.08105469 99.54726562 87.14648438 99.50859375 86.18359375 99.46875 C85.21550781 99.4378125 84.24742187 99.406875 83.25 99.375 C82.26644531 99.33632812 81.28289062 99.29765625 80.26953125 99.2578125 C77.84653963 99.16371574 75.42355204 99.07807672 73 99 C72.970271 98.16021606 72.970271 98.16021606 72.93994141 97.3034668 C72.84462217 94.76434146 72.73497247 92.22603112 72.625 89.6875 C72.5940625 88.80642578 72.563125 87.92535156 72.53125 87.01757812 C72.49257812 86.17001953 72.45390625 85.32246094 72.4140625 84.44921875 C72.3826416 83.66893311 72.3512207 82.88864746 72.31884766 82.0847168 C72.10412111 79.69844232 72.10412111 79.69844232 70 77 C67.87893205 76.49297483 67.87893205 76.49297483 65.4296875 76.48828125 C64.08583984 76.43510742 64.08583984 76.43510742 62.71484375 76.38085938 C61.30912109 76.34702148 61.30912109 76.34702148 59.875 76.3125 C58.93011719 76.27833984 57.98523438 76.24417969 57.01171875 76.20898438 C54.67459747 76.12635888 52.33785809 76.05726012 50 76 C49.96261719 74.78183594 49.92523438 73.56367187 49.88671875 72.30859375 C49.82101883 70.6848671 49.75457291 69.06117051 49.6875 67.4375 C49.65366211 66.23770508 49.65366211 66.23770508 49.61914062 65.01367188 C49.58369141 64.22412109 49.54824219 63.43457031 49.51171875 62.62109375 C49.48553467 61.9036499 49.45935059 61.18620605 49.43237305 60.44702148 C48.94228815 57.13073438 48.94228815 57.13073438 46 51 C38.41 50.67 30.82 50.34 23 50 C23 164.51 23 279.02 23 397 C31.25 396.67 39.5 396.34 48 396 C48.33 387.75 48.66 379.5 49 371 C57.25 371 65.5 371 74 371 C74.33 362.75 74.66 354.5 75 346 C82.92 346 90.84 346 99 346 C99 337.75 99 329.5 99 321 C106.59 321 114.18 321 122 321 C122.05082952 338.52983076 121.86854053 356.03703744 121.5 373.5625 C121.45159304 375.9537714 121.40341504 378.34504744 121.35546875 380.73632812 C121.23960218 386.49094133 121.1209725 392.24549198 121 398 C120.67 398 120.34 398 120 398 C120 381.5 120 365 120 348 C114.06 348 108.12 348 102 348 C102.03480469 349.62550781 102.06960937 351.25101562 102.10546875 352.92578125 C102.13360394 355.05467719 102.16090438 357.18358427 102.1875 359.3125 C102.21263672 360.38435547 102.23777344 361.45621094 102.26367188 362.56054688 C102.27333984 363.58857422 102.28300781 364.61660156 102.29296875 365.67578125 C102.3086792 366.62364502 102.32438965 367.57150879 102.34057617 368.5480957 C102 371 102 371 100.81445312 372.81445312 C98.33450314 374.43482949 96.62457401 374.34184377 93.67578125 374.29296875 C92.64775391 374.28330078 91.61972656 374.27363281 90.56054688 374.26367188 C89.48869141 374.23853516 88.41683594 374.21339844 87.3125 374.1875 C86.22904297 374.17396484 85.14558594 374.16042969 84.02929688 374.14648438 C81.35236595 374.11110643 78.67643162 374.06174189 76 374 C76.01047363 374.68626465 76.02094727 375.3725293 76.03173828 376.07958984 C76.07321874 379.17802289 76.09930069 382.27639761 76.125 385.375 C76.14175781 386.45523437 76.15851563 387.53546875 76.17578125 388.6484375 C76.18222656 389.6796875 76.18867188 390.7109375 76.1953125 391.7734375 C76.20578613 392.72653809 76.21625977 393.67963867 76.22705078 394.66162109 C76 397 76 397 74 399 C74 399.33 74 399.66 74 400 C66.74 400 59.48 400 52 400 C52 406.93 52 413.86 52 421 C51.34 421.33 50.68 421.66 50 422 C50 422.33 50 422.66 50 423 C45.97918387 423.03018979 41.95839805 423.04717812 37.9375 423.0625 C36.84244141 423.07087891 35.74738281 423.07925781 34.61914062 423.08789062 C23.02829035 423.12054091 11.62837401 422.50558148 0 422 C0 282.74 0 143.48 0 0 Z M102 346 C102 346.33 102 346.66 102 347 C107.94 347 113.88 347 120 347 C120 346.67 120 346.34 120 346 C114.06 346 108.12 346 102 346 Z " fill="#1A1413" transform="translate(108,21)"/>
<path d="M0 0 C6.6 0 13.2 0 20 0 C20 17.82 20 35.64 20 54 C-12.34 54 -44.68 54 -78 54 C-78 59.94 -78 65.88 -78 72 C-69.42 72 -60.84 72 -52 72 C-51.97709778 79.52974139 -51.95716862 87.05936291 -51.94506836 94.58911133 C-51.9400263 97.15291757 -51.93319286 99.71672091 -51.92456055 102.28051758 C-51.91248936 105.95655021 -51.90677058 109.63254498 -51.90234375 113.30859375 C-51.89718246 114.46274277 -51.89202118 115.61689178 -51.88670349 116.80601501 C-51.88662796 117.86703934 -51.88655243 118.92806366 -51.88647461 120.02124023 C-51.884254 120.96055893 -51.88203339 121.89987762 -51.87974548 122.86766052 C-52 125 -52 125 -53 126 C-54.85369611 126.08737645 -56.71067541 126.10698153 -58.56640625 126.09765625 C-59.69111328 126.09443359 -60.81582031 126.09121094 -61.97460938 126.08789062 C-63.15861328 126.07951172 -64.34261719 126.07113281 -65.5625 126.0625 C-66.75037109 126.05798828 -67.93824219 126.05347656 -69.16210938 126.04882812 C-72.10812226 126.03699675 -75.05403681 126.02051287 -78 126 C-78.02505615 124.69329346 -78.0501123 123.38658691 -78.07592773 122.0402832 C-78.17020534 117.1853683 -78.27037625 112.33058968 -78.37231445 107.47583008 C-78.41558635 105.37592765 -78.45726683 103.27599179 -78.49731445 101.17602539 C-78.55520477 98.15500827 -78.6188451 95.13415821 -78.68359375 92.11328125 C-78.70030624 91.17664139 -78.71701874 90.24000153 -78.73423767 89.27497864 C-78.7948716 81.92186692 -78.7948716 81.92186692 -81 75 C-92.385 74.505 -92.385 74.505 -104 74 C-104 58.16 -104 42.32 -104 26 C-71 26 -38 26 -4 26 C-4 18.41 -4 10.82 -4 3 C-2.68 2.34 -1.36 1.68 0 1 C0 0.67 0 0.34 0 0 Z " fill="#1A1413" transform="translate(384,292)"/>
<path d="M0 0 C0.33 0 0.66 0 1 0 C1 7.59 1 15.18 1 23 C8.43453479 22.88146495 8.43453479 22.88146495 15.8684082 22.72973633 C16.79484131 22.72224365 17.72127441 22.71475098 18.67578125 22.70703125 C20.0975769 22.68346558 20.0975769 22.68346558 21.5480957 22.65942383 C24 23 24 23 25.81445312 24.2265625 C27.3476147 26.51999036 27.3454337 27.92230286 27.29296875 30.66796875 C27.28330078 31.56064453 27.27363281 32.45332031 27.26367188 33.37304688 C27.23853516 34.30181641 27.21339844 35.23058594 27.1875 36.1875 C27.16719727 37.59805664 27.16719727 37.59805664 27.14648438 39.03710938 C27.11113096 41.35865038 27.06178674 43.67903653 27 46 C27.68102783 45.98428955 28.36205566 45.9685791 29.0637207 45.95239258 C32.14656281 45.89006778 35.22927244 45.85101742 38.3125 45.8125 C39.38435547 45.78736328 40.45621094 45.76222656 41.56054688 45.73632812 C42.58857422 45.72666016 43.61660156 45.71699219 44.67578125 45.70703125 C45.62364502 45.6913208 46.57150879 45.67561035 47.5480957 45.65942383 C50 46 50 46 51.81445312 47.171875 C53.46269837 49.71348546 53.34081763 51.52848901 53.29296875 54.54296875 C53.2784668 56.15268555 53.2784668 56.15268555 53.26367188 57.79492188 C53.23853516 58.91447266 53.21339844 60.03402344 53.1875 61.1875 C53.16719727 62.88422852 53.16719727 62.88422852 53.14648438 64.61523438 C53.11110305 67.41035882 53.05729579 70.20523889 53 73 C59.93 73 66.86 73 74 73 C74.33 73.66 74.66 74.32 75 75 C75.33 75 75.66 75 76 75 C76 81.6 76 88.2 76 95 C83.92 95 91.84 95 100 95 C100 104.57 100 114.14 100 124 C91.42 124 82.84 124 74 124 C74 115.75 74 107.5 74 99 C66.08 99 58.16 99 50 99 C50 91.41 50 83.82 50 76 C37.13 75.505 37.13 75.505 24 75 C23.505 62.13 23.505 62.13 23 49 C15.74 49 8.48 49 1 49 C-0.07208996 32.65062805 -0.10596188 16.37518623 0 0 Z " fill="#1B1514" transform="translate(232,120)"/>
<path d="M0 0 C0.33 0 0.66 0 1 0 C1 16.17 1 32.34 1 49 C7.93 49 14.86 49 22 49 C22.95471816 51.86415447 23.12651891 53.65130012 23.12939453 56.62329102 C23.13254669 57.55758438 23.13569885 58.49187775 23.13894653 59.45448303 C23.13591019 60.96394753 23.13591019 60.96394753 23.1328125 62.50390625 C23.13376923 63.53813217 23.13472595 64.57235809 23.13571167 65.63792419 C23.13639228 67.82429058 23.1345463 70.01065898 23.13037109 72.19702148 C23.12501577 75.5526175 23.13032293 78.90808 23.13671875 82.26367188 C23.13605805 84.38541696 23.13477707 86.50716197 23.1328125 88.62890625 C23.13483673 89.63724014 23.13686096 90.64557404 23.13894653 91.6844635 C23.13421829 93.08117531 23.13421829 93.08117531 23.12939453 94.50610352 C23.12859894 95.32756363 23.12780334 96.14902374 23.12698364 96.99537659 C23 99 23 99 22 101 C15.07 101 8.14 101 1 101 C1 108.92 1 116.84 1 125 C-16.82 125 -34.64 125 -53 125 C-53 116.42 -53 107.84 -53 99 C-27.755 98.505 -27.755 98.505 -2 98 C-1.34 65.66 -0.68 33.32 0 0 Z " fill="#191312" transform="translate(333,366)"/>
<path d="M0 0 C8.58 0 17.16 0 26 0 C26 16.83 26 33.66 26 51 C33.92 51 41.84 51 50 51 C50.19388403 102.65932294 50.19388403 102.65932294 49 124 C48.67 124 48.34 124 48 124 C48 116.08 48 108.16 48 100 C41.17879589 100.07908542 41.17879589 100.07908542 34.35791016 100.18017578 C33.51019043 100.1851709 32.6624707 100.19016602 31.7890625 100.1953125 C30.48509521 100.21102295 30.48509521 100.21102295 29.15478516 100.22705078 C27 100 27 100 25 98 C24.67 98 24.34 98 24 98 C24 83.48 24 68.96 24 54 C16.08 54 8.16 54 0 54 C0 36.18 0 18.36 0 0 Z " fill="#191312" transform="translate(230,367)"/>
<path d="M0 0 C0.33 0 0.66 0 1 0 C1.33 7.59 1.66 15.18 2 23 C8.93 23.33 15.86 23.66 23 24 C23.33 24.66 23.66 25.32 24 26 C24.33 26 24.66 26 25 26 C25 33.59 25 41.18 25 49 C32.92 49 40.84 49 49 49 C49 57.58 49 66.16 49 75 C40.09 75 31.18 75 22 75 C22 67.41 22 59.82 22 52 C14.41 52 6.82 52 -1 52 C-1.09544233 34.62949523 -0.8068229 17.3509839 0 0 Z " fill="#1C1615" transform="translate(333,218)"/>
<path d="M0 0 C0.33 0 0.66 0 1 0 C1.33 7.59 1.66 15.18 2 23 C8.93 23.33 15.86 23.66 23 24 C23.02686352 28.12504298 23.04677254 32.24991269 23.0625 36.375 C23.07087891 37.550625 23.07925781 38.72625 23.08789062 39.9375 C23.09272461 41.61972656 23.09272461 41.61972656 23.09765625 43.3359375 C23.10551147 44.89127197 23.10551147 44.89127197 23.11352539 46.47802734 C23 49 23 49 22 51 C14.41 51 6.82 51 -1 51 C-1.09790993 33.96367302 -0.78500569 17.01750372 0 0 Z " fill="#191312" transform="translate(333,218)"/>
<path d="M0 0 C0.33 0 0.66 0 1 0 C1 138.93 1 277.86 1 421 C0.67 421 0.34 421 0 421 C0 282.07 0 143.14 0 0 Z " fill="#1A1413" transform="translate(106,21)"/>
<path d="M0 0 C0.33 0 0.66 0 1 0 C1 7.59 1 15.18 1 23 C8.92 23 16.84 23 25 23 C25 23.33 25 23.66 25 24 C24.30849854 24.02505615 23.61699707 24.0501123 22.90454102 24.07592773 C19.79032134 24.19152161 16.67643211 24.31441242 13.5625 24.4375 C12.47388672 24.47681641 11.38527344 24.51613281 10.26367188 24.55664062 C9.22919922 24.59853516 8.19472656 24.64042969 7.12890625 24.68359375 C5.69140015 24.73858032 5.69140015 24.73858032 4.22485352 24.79467773 C2.02861075 24.75834424 2.02861075 24.75834424 1 26 C-0.92667507 26.08748207 -2.85651861 26.10697334 -4.78515625 26.09765625 C-5.95498047 26.09443359 -7.12480469 26.09121094 -8.33007812 26.08789062 C-10.17762695 26.07532227 -10.17762695 26.07532227 -12.0625 26.0625 C-13.91584961 26.05573242 -13.91584961 26.05573242 -15.80664062 26.04882812 C-18.87114117 26.03699608 -21.93554721 26.02051173 -25 26 C-25 25.67 -25 25.34 -25 25 C-17.41 25 -9.82 25 -2 25 C-2 24.34 -2 23.68 -2 23 C-1.34 23 -0.68 23 0 23 C0 15.41 0 7.82 0 0 Z " fill="#1F1918" transform="translate(357,244)"/>
<path d="M0 0 C17.16 0 34.32 0 52 0 C52 0.33 52 0.66 52 1 C34.84 1 17.68 1 0 1 C0 0.67 0 0.34 0 0 Z " fill="#1A1413" transform="translate(280,492)"/>
<path d="M0 0 C0.33 0 0.66 0 1 0 C1 16.5 1 33 1 50 C0.67 50 0.34 50 0 50 C0 33.5 0 17 0 0 Z " fill="#1A1413" transform="translate(405,294)"/>
<path d="M0 0 C0.33 0 0.66 0 1 0 C1 15.18 1 30.36 1 46 C0.67 46 0.34 46 0 46 C0 30.82 0 15.64 0 0 Z " fill="#1A1413" transform="translate(357,418)"/>
<path d="M0 0 C0.99 0.33 1.98 0.66 3 1 C3 1.66 3 2.32 3 3 C-5.58 3 -14.16 3 -23 3 C-23 2.67 -23 2.34 -23 2 C-15.41 2 -7.82 2 0 2 C0 1.34 0 0.68 0 0 Z " fill="#5C5857" transform="translate(355,267)"/>
<path d="M0 0 C7.92 0 15.84 0 24 0 C24 0.33 24 0.66 24 1 C16.08 1 8.16 1 0 1 C0 0.67 0 0.34 0 0 Z " fill="#1A1413" transform="translate(108,19)"/>
<path d="M0 0 C0.33 0 0.66 0 1 0 C1 7.59 1 15.18 1 23 C0.67 23 0.34 23 0 23 C0 15.41 0 7.82 0 0 Z " fill="#1C1716" transform="translate(383,269)"/>
<path d="M0 0 C7.26 0 14.52 0 22 0 C22 0.33 22 0.66 22 1 C14.74 1 7.48 1 0 1 C0 0.67 0 0.34 0 0 Z " fill="#1A1312" transform="translate(109,444)"/>
</svg>
