<?xml version="1.0" encoding="UTF-8"?>
<svg version="1.1" xmlns="http://www.w3.org/2000/svg" width="700" height="862">
<path d="M0 0 C1.43856354 -0.0049926 1.43856354 -0.0049926 2.90618896 -0.01008606 C4.92654952 -0.01512495 6.94691832 -0.01749533 8.96728516 -0.01733398 C12.02390589 -0.01951486 15.08016195 -0.03768791 18.13671875 -0.05664062 C48.64526647 -0.14494345 48.64526647 -0.14494345 58.38671875 8.609375 C64.18199938 15.01468517 66.07754909 22.90681745 67.796875 31.16796875 C68.53292969 31.30589844 69.26898438 31.44382812 70.02734375 31.5859375 C78.23947124 33.31175837 88.42610553 36.16215502 93.703125 43.1328125 C98.21617418 51.53030759 99.90627636 61.43330984 99.94836426 70.86087036 C99.95471287 71.8321287 99.95471287 71.8321287 99.96118975 72.82300842 C99.97413815 74.97852504 99.98022232 77.13400476 99.98632812 79.28955078 C99.99427654 80.84057843 100.00266497 82.39160387 100.01145935 83.94262695 C100.02947492 87.27542605 100.04450503 90.60822043 100.05723572 93.94104385 C100.07749898 99.21022912 100.10514409 104.47935989 100.13391113 109.74850464 C100.19902915 121.88144035 100.25454149 134.01441642 100.30989838 146.1473999 C100.36075335 157.27443293 100.41363243 168.4014461 100.47442389 179.52842987 C100.50276688 184.76749695 100.52636436 190.00655759 100.54634857 195.24566293 C100.55973336 198.50175074 100.57714533 201.75780794 100.59565926 205.01387024 C100.60341557 206.52476604 100.60948504 208.03567158 100.61375237 209.54658127 C100.6198008 211.60745111 100.63184992 213.66820214 100.64538574 215.72903442 C100.65053947 216.88270067 100.65569321 218.03636692 100.66100311 219.22499275 C100.77631115 221.72255709 101.06682137 223.79032674 101.796875 226.16796875 C102.65216797 226.18255127 103.50746094 226.19713379 104.38867188 226.2121582 C147.09353579 227.02566631 147.09353579 227.02566631 155.1875 234.2421875 C160.14516984 240.17454486 163.28798446 246.68697807 164.08203125 254.390625 C164.66317533 256.40169263 164.66317533 256.40169263 166.97572327 257.26210022 C170.02908987 258.24253267 172.44824588 258.42569052 175.65014648 258.43920898 C176.80582626 258.4493956 177.96150604 258.45958221 179.15220642 258.47007751 C181.01625877 258.47328758 181.01625877 258.47328758 182.91796875 258.4765625 C184.89227391 258.49529092 186.86657906 258.51403674 188.84087467 258.53374577 C193.68735806 258.57885786 198.53397949 258.60251774 203.38061523 258.62426758 C206.10079556 258.63720438 208.82072517 258.65805878 211.54078674 258.6865387 C214.09077002 258.71244435 216.64090993 258.72667226 219.19102478 258.72691345 C230.75294841 258.85716302 244.80808828 259.65470772 253.69140625 267.93359375 C258.53665736 273.44187922 260.25584102 279.14656071 261.875 286.2265625 C262.54912887 289.45641459 262.54912887 289.45641459 265.796875 291.16796875 C268.74641492 291.477325 268.74641492 291.477325 272.14501953 291.43920898 C273.45713409 291.4493956 274.76924866 291.45958221 276.12112427 291.47007751 C276.82269779 291.47101851 277.52427132 291.4719595 278.24710464 291.472929 C280.45112129 291.47659818 282.6546901 291.49334293 284.85861206 291.51368713 C291.12473167 291.56902169 297.39091909 291.59965636 303.65722656 291.62426758 C307.49284348 291.64023861 311.32814727 291.6705646 315.16360092 291.70903206 C316.61865765 291.72060764 318.07377067 291.72661175 319.52887344 291.72671318 C327.40040781 291.72746028 334.49798576 291.94004569 341.796875 295.16796875 C342.52560822 295.46742905 343.25434143 295.76688934 344.00515747 296.07542419 C349.1789601 298.27789016 353.14793837 301.13260273 355.796875 306.16796875 C356.84013813 309.61191745 357.61965604 313.11388677 358.24121094 316.65722656 C358.64996696 318.98151683 358.64996696 318.98151683 359.796875 322.16796875 C363.98535701 324.61021346 368.34972898 324.44762727 373.0625 324.44140625 C374.69141301 324.46170404 376.32031921 324.48255498 377.94921875 324.50390625 C380.49436207 324.52642531 383.03923453 324.54295111 385.58447266 324.54882812 C403.60879043 324.61886627 403.60879043 324.61886627 410.796875 329.16796875 C411.78300781 329.71916382 411.78300781 329.71916382 412.7890625 330.28149414 C419.88857978 334.36667471 422.29444156 342.10462094 424.421875 349.60546875 C424.62039063 350.40855469 424.81890625 351.21164062 425.0234375 352.0390625 C425.93614198 354.55130462 426.6239643 355.60441779 428.796875 357.16796875 C431.68093926 357.92704981 431.68093926 357.92704981 434.921875 358.41796875 C441.59377959 359.87419737 446.27214578 361.96311322 450.796875 367.16796875 C453.75882293 372.05118021 455.64396291 377.11671862 456.921875 382.66796875 C457.80632354 386.20576293 458.04749119 387.03765149 460.796875 389.16796875 C463.24936658 390.03258285 463.24936658 390.03258285 465.984375 390.60546875 C474.64815698 392.8342781 480.66910174 395.61294231 485.796875 403.16796875 C491.31117919 413.21187995 491.09345168 425.17205501 491.0715332 436.34326172 C491.07589261 437.72131625 491.0810798 439.09936837 491.08702087 440.47741699 C491.10028984 444.1841676 491.10100322 447.89081551 491.09845757 451.5975852 C491.09737961 454.70850682 491.10229211 457.81940836 491.107063 460.93032563 C491.11811625 468.27794755 491.11861921 475.62551834 491.11254883 482.97314453 C491.10651177 490.51672362 491.11882285 498.06011606 491.1401189 505.60366333 C491.1578138 512.11448558 491.16372391 518.62524884 491.16048115 525.13609421 C491.15868074 529.00968459 491.16117884 532.88314178 491.17519569 536.75671005 C491.18789893 540.40289625 491.18571394 544.04879433 491.17278481 547.69497681 C491.16934451 549.6459531 491.18050399 551.59693873 491.19235229 553.54788208 C491.12632555 564.81271823 490.37472301 577.2332058 482.796875 586.16796875 C482.33925781 586.7196875 481.88164063 587.27140625 481.41015625 587.83984375 C476.77656499 592.55513561 471.19598944 593.76990213 464.90625 595.30859375 C461.66502324 596.02981301 461.66502324 596.02981301 458.796875 598.16796875 C458.49670377 601.17398853 458.39080884 603.97648095 458.41210938 606.98535156 C458.4067366 607.89949829 458.40136383 608.81364502 458.39582825 609.75549316 C458.38602388 611.74708183 458.38311408 613.73871336 458.38618469 615.73032379 C458.39065654 618.89340033 458.37667466 622.05591537 458.35778809 625.21893311 C458.32091904 631.95193553 458.3073085 638.6848803 458.296875 645.41796875 C458.28476193 653.18147358 458.26290125 660.94470764 458.21687317 668.70809174 C458.2034153 671.8043057 458.2074564 674.90016775 458.21228027 677.99639893 C458.13447076 706.40794851 458.13447076 706.40794851 449.796875 716.16796875 C449.25417969 716.80476562 448.71148438 717.4415625 448.15234375 718.09765625 C443.25352335 723.06866979 438.45351242 724.34859098 431.65234375 725.46484375 C428.5665581 726.22468153 427.7160044 726.72616253 425.796875 729.16796875 C425.34734805 731.10798444 425.34734805 731.10798444 425.41160583 733.26455688 C425.39713409 734.51335632 425.39713409 734.51335632 425.38237 735.78738403 C425.38923576 737.15260696 425.38923576 737.15260696 425.39624023 738.54541016 C425.38926117 739.50674866 425.3822821 740.46808716 425.37509155 741.45855713 C425.35505232 744.64563676 425.35561473 747.83239408 425.35546875 751.01953125 C425.34369875 753.2357165 425.33033545 755.45189382 425.31544495 757.6680603 C425.27918486 763.5138894 425.25904135 769.35964828 425.24389648 775.20556641 C425.2191179 784.54137355 425.17924102 793.87702515 425.12199593 803.21268845 C425.10572604 806.46805228 425.10189356 809.72326881 425.09898376 812.97866821 C425.08919965 814.99050138 425.0789351 817.00233229 425.06811523 819.01416016 C425.07066818 819.91216339 425.07322113 820.81016663 425.07585144 821.73538208 C424.98944664 832.48475097 422.83049461 840.7681928 415.31640625 848.73828125 C404.79384286 858.16063024 389.69378349 857.4663606 376.43936157 857.42866516 C374.91692938 857.4316915 373.3944987 857.43558339 371.87207067 857.44025773 C367.71900415 857.45048423 363.56602446 857.44836965 359.41295099 857.44407713 C354.92204529 857.44160015 350.43115997 857.45063607 345.94026184 857.45811462 C337.15403524 857.47083647 328.36783923 857.47265848 319.58160497 857.47031436 C312.43717549 857.46852832 305.29275526 857.47028698 298.14832687 857.4745388 C297.12988658 857.47513399 296.11144628 857.47572918 295.06214415 857.47634241 C292.9929098 857.47755421 290.92367544 857.47876834 288.85444109 857.47998478 C269.46778088 857.49085052 250.08113808 857.48870234 230.69447689 857.48259994 C212.97669347 857.47743099 195.25896503 857.48868736 177.54119249 857.50769816 C159.32719991 857.52709085 141.11323333 857.53533008 122.89923036 857.5315749 C112.68200455 857.52966512 102.46482555 857.53212877 92.24760818 857.54628944 C83.55007493 857.55822242 74.85261729 857.55958661 66.15508296 857.54749928 C61.72193269 857.54162421 57.28892059 857.54047306 52.85577965 857.55250168 C48.78944177 857.56340639 44.72335667 857.56020309 40.65703039 857.54623999 C39.19416189 857.54360564 37.73127327 857.54591947 36.26842459 857.55397586 C24.91980905 857.61208698 10.21725942 857.52303399 0.796875 850.16796875 C-7.40762897 841.47413054 -9.22706015 833.47121471 -9.44921875 821.66015625 C-9.48212691 820.24738893 -9.51533901 818.83462867 -9.54882812 817.421875 C-9.59631935 815.22546726 -9.64087172 813.02909414 -9.67993164 810.83251953 C-9.71975752 808.69146127 -9.77123101 806.55092369 -9.82421875 804.41015625 C-9.8492749 803.14026855 -9.87433105 801.87038086 -9.90014648 800.56201172 C-10.19032881 797.31131491 -10.679301 795.04075169 -12.203125 792.16796875 C-14.48415978 791.12897132 -14.48415978 791.12897132 -17.203125 790.73046875 C-25.34406446 788.81809583 -32.69152333 785.30178131 -37.24609375 778.02734375 C-41.05479316 770.6275849 -42.32856586 763.64389643 -42.4140625 755.34765625 C-42.44210688 753.82811378 -42.47077114 752.30858265 -42.5 750.7890625 C-42.54138337 748.40804069 -42.57829806 746.02723643 -42.60449219 743.64599609 C-42.63204446 741.3377811 -42.67787973 739.0305092 -42.7265625 736.72265625 C-42.7314418 735.6538472 -42.7314418 735.6538472 -42.73641968 734.56344604 C-42.8083605 731.67850961 -42.86201469 729.65595291 -44.54296875 727.2512207 C-47.11998461 725.56971785 -49.84026349 725.14769272 -52.828125 724.48046875 C-60.74387076 722.321629 -66.10275392 719.01840602 -70.56640625 712.03515625 C-75.65261707 701.71477211 -75.54657025 689.91187234 -75.765625 678.66796875 C-75.8236752 675.99068103 -75.88903775 673.31379597 -75.95703125 670.63671875 C-75.98095947 669.46560547 -76.0048877 668.29449219 -76.02954102 667.08789062 C-76.08023662 664.1043466 -76.08023662 664.1043466 -77.203125 661.16796875 C-77.88117188 661.09320312 -78.55921875 661.0184375 -79.2578125 660.94140625 C-87.21677333 659.81701012 -94.59004826 657.36737812 -99.984375 651.09765625 C-101.203125 649.16796875 -101.203125 649.16796875 -101.203125 647.16796875 C-101.863125 647.16796875 -102.523125 647.16796875 -103.203125 647.16796875 C-103.69474225 645.86008136 -104.17054258 644.54624968 -104.640625 643.23046875 C-104.90746094 642.49957031 -105.17429687 641.76867187 -105.44921875 641.015625 C-108.00172902 631.37427791 -107.4902749 621.01727592 -107.6328125 611.12109375 C-107.66375 609.91453125 -107.6946875 608.70796875 -107.7265625 607.46484375 C-107.7562915 605.83047363 -107.7562915 605.83047363 -107.78662109 604.16308594 C-108.25701612 600.78043285 -109.13794777 598.87243982 -111.203125 596.16796875 C-114.28994727 594.98867602 -114.28994727 594.98867602 -117.828125 594.35546875 C-125.97607629 592.22808828 -131.2788657 589.06693773 -135.65722656 581.73193359 C-139.8456035 572.58398131 -139.92037817 564.15050075 -139.890625 554.29296875 C-139.89956866 551.93861002 -139.91563481 549.58466611 -139.9420929 547.23043823 C-139.95681929 545.77911327 -139.96092508 544.32762536 -139.95231628 542.87625122 C-139.97643543 538.59996891 -140.64255821 535.1461571 -142.203125 531.16796875 C-142.88117188 531.09320312 -143.55921875 531.0184375 -144.2578125 530.94140625 C-153.2751764 529.66748503 -160.90720437 526.72628075 -166.578125 519.29296875 C-173.65853932 507.0631622 -173.60973953 494.12286457 -173.14404297 480.39697266 C-173.1132666 479.27597168 -173.08249023 478.1549707 -173.05078125 477 C-173.00961182 475.99686768 -172.96844238 474.99373535 -172.92602539 473.96020508 C-173.25735855 470.62147616 -174.1770448 468.82244624 -176.203125 466.16796875 C-179.26014339 465.0621195 -179.26014339 465.0621195 -182.765625 464.48046875 C-190.72525581 462.42876267 -195.45432445 458.85858653 -200.203125 452.16796875 C-204.00579479 444.2278029 -204.32323967 435.05076531 -204.34838867 426.38183594 C-204.35174728 425.6489183 -204.3551059 424.91600067 -204.35856628 424.16087341 C-204.36798604 421.76217913 -204.37001494 419.36355533 -204.37109375 416.96484375 C-204.3743129 415.2786659 -204.37767745 413.59248832 -204.38117981 411.90631104 C-204.38714892 408.37942864 -204.38902203 404.85257068 -204.38842773 401.32568359 C-204.38832632 396.83629291 -204.40196734 392.3470611 -204.41919994 387.85770798 C-204.43039314 384.3761322 -204.4323447 380.89459393 -204.43181801 377.41300201 C-204.43298755 375.75942692 -204.43735072 374.10585051 -204.44515038 372.4522934 C-204.56851841 343.59426106 -204.56851841 343.59426106 -196.515625 334.19921875 C-185.62488319 323.83544832 -173.10745343 324.58557505 -158.98046875 324.671875 C-156.90881805 324.67171981 -154.83716706 324.67022748 -152.76551819 324.66746521 C-148.43754132 324.66608546 -144.10989755 324.67856936 -139.78198242 324.70141602 C-134.2519579 324.72981688 -128.7224855 324.72705264 -123.19242001 324.7143259 C-118.91914709 324.70735086 -114.6460004 324.71517858 -110.37274361 324.72758293 C-108.33432055 324.73207843 -106.29588386 324.73245098 -104.25745964 324.72851753 C-101.40304941 324.7255869 -98.54938411 324.74219983 -95.69506836 324.76391602 C-94.86416687 324.75941437 -94.03326538 324.75491272 -93.17718506 324.75027466 C-87.39208135 324.82291111 -82.58023627 326.05650432 -77.203125 328.16796875 C-76.37202641 325.26311658 -76.07614501 322.68195099 -76.07004642 319.66439819 C-76.06580538 318.76163493 -76.06156433 317.85887167 -76.05719477 316.92875195 C-76.0575809 315.94083314 -76.05796703 314.95291433 -76.05836487 313.93505859 C-76.0530746 312.35617214 -76.0530746 312.35617214 -76.04767746 310.74538898 C-76.03697475 307.206557 -76.03330668 303.66775192 -76.02954102 300.12890625 C-76.02323678 297.59609361 -76.01647113 295.06328208 -76.00927734 292.5304718 C-75.99459591 287.06901237 -75.98279483 281.60755836 -75.97332954 276.14608765 C-75.95944413 268.23664062 -75.93825324 260.32722541 -75.91490101 252.41780126 C-75.87697861 239.56809249 -75.84201894 226.71837793 -75.81030273 213.86865234 C-75.807452 212.7149131 -75.807452 212.7149131 -75.80454367 211.537866 C-75.77774486 200.63647861 -75.75386249 189.73508676 -75.73115867 178.83369017 C-75.72956137 178.0669562 -75.72796406 177.30022223 -75.72631836 176.51025391 C-75.72472489 175.74445778 -75.72313143 174.97866166 -75.72148968 174.1896596 C-75.69467468 161.39771128 -75.66025355 148.6057967 -75.61966461 135.81388474 C-75.59495432 127.930533 -75.57659157 120.04721746 -75.566509 112.1638332 C-75.55820927 106.11253977 -75.53967961 100.06132135 -75.51744843 94.01006126 C-75.5099961 91.53499321 -75.50589327 89.05991238 -75.50545311 86.58483315 C-75.50436397 83.19537351 -75.49105681 79.80616454 -75.47486877 76.41674805 C-75.47748563 75.44667501 -75.48010248 74.47660198 -75.48279864 73.4771328 C-75.40487453 62.96832282 -74.86305564 50.25506396 -67.33984375 42.1640625 C-61.78694092 37.15494676 -56.94009767 34.22498366 -49.578125 32.66796875 C-44.84386922 31.41168081 -44.84386922 31.41168081 -41.90234375 27.81640625 C-41.46951649 25.93108504 -41.1004463 24.03023378 -40.7890625 22.12109375 C-39.59260901 16.09096818 -35.90322677 10.45365315 -31.453125 6.23046875 C-22.02964349 0.25018241 -10.84459339 0.01332926 0 0 Z " fill="#F7F7F7" transform="translate(207.203125,2.83203125)"/>
<path d="M0 0 C1.43856354 -0.0049926 1.43856354 -0.0049926 2.90618896 -0.01008606 C4.92654952 -0.01512495 6.94691832 -0.01749533 8.96728516 -0.01733398 C12.02390589 -0.01951486 15.08016195 -0.03768791 18.13671875 -0.05664062 C48.64526647 -0.14494345 48.64526647 -0.14494345 58.38671875 8.609375 C64.18199938 15.01468517 66.07754909 22.90681745 67.796875 31.16796875 C68.53292969 31.30589844 69.26898438 31.44382812 70.02734375 31.5859375 C78.23947124 33.31175837 88.42610553 36.16215502 93.703125 43.1328125 C98.21617418 51.53030759 99.90627636 61.43330984 99.94836426 70.86087036 C99.95471287 71.8321287 99.95471287 71.8321287 99.96118975 72.82300842 C99.97413815 74.97852504 99.98022232 77.13400476 99.98632812 79.28955078 C99.99427654 80.84057843 100.00266497 82.39160387 100.01145935 83.94262695 C100.02947492 87.27542605 100.04450503 90.60822043 100.05723572 93.94104385 C100.07749898 99.21022912 100.10514409 104.47935989 100.13391113 109.74850464 C100.19902915 121.88144035 100.25454149 134.01441642 100.30989838 146.1473999 C100.36075335 157.27443293 100.41363243 168.4014461 100.47442389 179.52842987 C100.50276688 184.76749695 100.52636436 190.00655759 100.54634857 195.24566293 C100.55973336 198.50175074 100.57714533 201.75780794 100.59565926 205.01387024 C100.60341557 206.52476604 100.60948504 208.03567158 100.61375237 209.54658127 C100.6198008 211.60745111 100.63184992 213.66820214 100.64538574 215.72903442 C100.65053947 216.88270067 100.65569321 218.03636692 100.66100311 219.22499275 C100.77631115 221.72255709 101.06682137 223.79032674 101.796875 226.16796875 C102.65216797 226.18255127 103.50746094 226.19713379 104.38867188 226.2121582 C147.09353579 227.02566631 147.09353579 227.02566631 155.1875 234.2421875 C160.14516984 240.17454486 163.28798446 246.68697807 164.08203125 254.390625 C164.66317533 256.40169263 164.66317533 256.40169263 166.97572327 257.26210022 C170.02908987 258.24253267 172.44824588 258.42569052 175.65014648 258.43920898 C176.80582626 258.4493956 177.96150604 258.45958221 179.15220642 258.47007751 C181.01625877 258.47328758 181.01625877 258.47328758 182.91796875 258.4765625 C184.89227391 258.49529092 186.86657906 258.51403674 188.84087467 258.53374577 C193.68735806 258.57885786 198.53397949 258.60251774 203.38061523 258.62426758 C206.10079556 258.63720438 208.82072517 258.65805878 211.54078674 258.6865387 C214.09077002 258.71244435 216.64090993 258.72667226 219.19102478 258.72691345 C230.75294841 258.85716302 244.80808828 259.65470772 253.69140625 267.93359375 C258.53665736 273.44187922 260.25584102 279.14656071 261.875 286.2265625 C262.54912887 289.45641459 262.54912887 289.45641459 265.796875 291.16796875 C268.74641492 291.477325 268.74641492 291.477325 272.14501953 291.43920898 C273.45713409 291.4493956 274.76924866 291.45958221 276.12112427 291.47007751 C276.82269779 291.47101851 277.52427132 291.4719595 278.24710464 291.472929 C280.45112129 291.47659818 282.6546901 291.49334293 284.85861206 291.51368713 C291.12473167 291.56902169 297.39091909 291.59965636 303.65722656 291.62426758 C307.49284348 291.64023861 311.32814727 291.6705646 315.16360092 291.70903206 C316.61865765 291.72060764 318.07377067 291.72661175 319.52887344 291.72671318 C327.40040781 291.72746028 334.49798576 291.94004569 341.796875 295.16796875 C342.52560822 295.46742905 343.25434143 295.76688934 344.00515747 296.07542419 C349.1789601 298.27789016 353.14793837 301.13260273 355.796875 306.16796875 C356.84013813 309.61191745 357.61965604 313.11388677 358.24121094 316.65722656 C358.64996696 318.98151683 358.64996696 318.98151683 359.796875 322.16796875 C363.98535701 324.61021346 368.34972898 324.44762727 373.0625 324.44140625 C374.69141301 324.46170404 376.32031921 324.48255498 377.94921875 324.50390625 C380.49436207 324.52642531 383.03923453 324.54295111 385.58447266 324.54882812 C403.60879043 324.61886627 403.60879043 324.61886627 410.796875 329.16796875 C411.78300781 329.71916382 411.78300781 329.71916382 412.7890625 330.28149414 C419.88857978 334.36667471 422.29444156 342.10462094 424.421875 349.60546875 C424.62039063 350.40855469 424.81890625 351.21164062 425.0234375 352.0390625 C425.93614198 354.55130462 426.6239643 355.60441779 428.796875 357.16796875 C431.68093926 357.92704981 431.68093926 357.92704981 434.921875 358.41796875 C441.59377959 359.87419737 446.27214578 361.96311322 450.796875 367.16796875 C453.75882293 372.05118021 455.64396291 377.11671862 456.921875 382.66796875 C457.80632354 386.20576293 458.04749119 387.03765149 460.796875 389.16796875 C463.24936658 390.03258285 463.24936658 390.03258285 465.984375 390.60546875 C474.64815698 392.8342781 480.66910174 395.61294231 485.796875 403.16796875 C491.31117919 413.21187995 491.09345168 425.17205501 491.0715332 436.34326172 C491.07589261 437.72131625 491.0810798 439.09936837 491.08702087 440.47741699 C491.10028984 444.1841676 491.10100322 447.89081551 491.09845757 451.5975852 C491.09737961 454.70850682 491.10229211 457.81940836 491.107063 460.93032563 C491.11811625 468.27794755 491.11861921 475.62551834 491.11254883 482.97314453 C491.10651177 490.51672362 491.11882285 498.06011606 491.1401189 505.60366333 C491.1578138 512.11448558 491.16372391 518.62524884 491.16048115 525.13609421 C491.15868074 529.00968459 491.16117884 532.88314178 491.17519569 536.75671005 C491.18789893 540.40289625 491.18571394 544.04879433 491.17278481 547.69497681 C491.16934451 549.6459531 491.18050399 551.59693873 491.19235229 553.54788208 C491.12632555 564.81271823 490.37472301 577.2332058 482.796875 586.16796875 C482.33925781 586.7196875 481.88164063 587.27140625 481.41015625 587.83984375 C476.77656499 592.55513561 471.19598944 593.76990213 464.90625 595.30859375 C461.66502324 596.02981301 461.66502324 596.02981301 458.796875 598.16796875 C458.49670377 601.17398853 458.39080884 603.97648095 458.41210938 606.98535156 C458.4067366 607.89949829 458.40136383 608.81364502 458.39582825 609.75549316 C458.38602388 611.74708183 458.38311408 613.73871336 458.38618469 615.73032379 C458.39065654 618.89340033 458.37667466 622.05591537 458.35778809 625.21893311 C458.32091904 631.95193553 458.3073085 638.6848803 458.296875 645.41796875 C458.28476193 653.18147358 458.26290125 660.94470764 458.21687317 668.70809174 C458.2034153 671.8043057 458.2074564 674.90016775 458.21228027 677.99639893 C458.13447076 706.40794851 458.13447076 706.40794851 449.796875 716.16796875 C449.25417969 716.80476562 448.71148438 717.4415625 448.15234375 718.09765625 C443.25352335 723.06866979 438.45351242 724.34859098 431.65234375 725.46484375 C428.5665581 726.22468153 427.7160044 726.72616253 425.796875 729.16796875 C425.34734805 731.10798444 425.34734805 731.10798444 425.41160583 733.26455688 C425.39713409 734.51335632 425.39713409 734.51335632 425.38237 735.78738403 C425.38923576 737.15260696 425.38923576 737.15260696 425.39624023 738.54541016 C425.38926117 739.50674866 425.3822821 740.46808716 425.37509155 741.45855713 C425.35505232 744.64563676 425.35561473 747.83239408 425.35546875 751.01953125 C425.34369875 753.2357165 425.33033545 755.45189382 425.31544495 757.6680603 C425.27918486 763.5138894 425.25904135 769.35964828 425.24389648 775.20556641 C425.2191179 784.54137355 425.17924102 793.87702515 425.12199593 803.21268845 C425.10572604 806.46805228 425.10189356 809.72326881 425.09898376 812.97866821 C425.08919965 814.99050138 425.0789351 817.00233229 425.06811523 819.01416016 C425.07066818 819.91216339 425.07322113 820.81016663 425.07585144 821.73538208 C424.98944664 832.48475097 422.83049461 840.7681928 415.31640625 848.73828125 C404.79384286 858.16063024 389.69378349 857.4663606 376.43936157 857.42866516 C374.91692938 857.4316915 373.3944987 857.43558339 371.87207067 857.44025773 C367.71900415 857.45048423 363.56602446 857.44836965 359.41295099 857.44407713 C354.92204529 857.44160015 350.43115997 857.45063607 345.94026184 857.45811462 C337.15403524 857.47083647 328.36783923 857.47265848 319.58160497 857.47031436 C312.43717549 857.46852832 305.29275526 857.47028698 298.14832687 857.4745388 C297.12988658 857.47513399 296.11144628 857.47572918 295.06214415 857.47634241 C292.9929098 857.47755421 290.92367544 857.47876834 288.85444109 857.47998478 C269.46778088 857.49085052 250.08113808 857.48870234 230.69447689 857.48259994 C212.97669347 857.47743099 195.25896503 857.48868736 177.54119249 857.50769816 C159.32719991 857.52709085 141.11323333 857.53533008 122.89923036 857.5315749 C112.68200455 857.52966512 102.46482555 857.53212877 92.24760818 857.54628944 C83.55007493 857.55822242 74.85261729 857.55958661 66.15508296 857.54749928 C61.72193269 857.54162421 57.28892059 857.54047306 52.85577965 857.55250168 C48.78944177 857.56340639 44.72335667 857.56020309 40.65703039 857.54623999 C39.19416189 857.54360564 37.73127327 857.54591947 36.26842459 857.55397586 C24.91980905 857.61208698 10.21725942 857.52303399 0.796875 850.16796875 C-7.40762897 841.47413054 -9.22706015 833.47121471 -9.44921875 821.66015625 C-9.48212691 820.24738893 -9.51533901 818.83462867 -9.54882812 817.421875 C-9.59631935 815.22546726 -9.64087172 813.02909414 -9.67993164 810.83251953 C-9.71975752 808.69146127 -9.77123101 806.55092369 -9.82421875 804.41015625 C-9.8492749 803.14026855 -9.87433105 801.87038086 -9.90014648 800.56201172 C-10.19032881 797.31131491 -10.679301 795.04075169 -12.203125 792.16796875 C-14.48415978 791.12897132 -14.48415978 791.12897132 -17.203125 790.73046875 C-25.34406446 788.81809583 -32.69152333 785.30178131 -37.24609375 778.02734375 C-41.05479316 770.6275849 -42.32856586 763.64389643 -42.4140625 755.34765625 C-42.44210688 753.82811378 -42.47077114 752.30858265 -42.5 750.7890625 C-42.54138337 748.40804069 -42.57829806 746.02723643 -42.60449219 743.64599609 C-42.63204446 741.3377811 -42.67787973 739.0305092 -42.7265625 736.72265625 C-42.7314418 735.6538472 -42.7314418 735.6538472 -42.73641968 734.56344604 C-42.8083605 731.67850961 -42.86201469 729.65595291 -44.54296875 727.2512207 C-47.11998461 725.56971785 -49.84026349 725.14769272 -52.828125 724.48046875 C-60.74387076 722.321629 -66.10275392 719.01840602 -70.56640625 712.03515625 C-75.65261707 701.71477211 -75.54657025 689.91187234 -75.765625 678.66796875 C-75.8236752 675.99068103 -75.88903775 673.31379597 -75.95703125 670.63671875 C-75.98095947 669.46560547 -76.0048877 668.29449219 -76.02954102 667.08789062 C-76.08023662 664.1043466 -76.08023662 664.1043466 -77.203125 661.16796875 C-77.88117188 661.09320312 -78.55921875 661.0184375 -79.2578125 660.94140625 C-87.21677333 659.81701012 -94.59004826 657.36737812 -99.984375 651.09765625 C-101.203125 649.16796875 -101.203125 649.16796875 -101.203125 647.16796875 C-101.863125 647.16796875 -102.523125 647.16796875 -103.203125 647.16796875 C-103.69474225 645.86008136 -104.17054258 644.54624968 -104.640625 643.23046875 C-104.90746094 642.49957031 -105.17429687 641.76867187 -105.44921875 641.015625 C-108.00172902 631.37427791 -107.4902749 621.01727592 -107.6328125 611.12109375 C-107.66375 609.91453125 -107.6946875 608.70796875 -107.7265625 607.46484375 C-107.7562915 605.83047363 -107.7562915 605.83047363 -107.78662109 604.16308594 C-108.25701612 600.78043285 -109.13794777 598.87243982 -111.203125 596.16796875 C-114.28994727 594.98867602 -114.28994727 594.98867602 -117.828125 594.35546875 C-125.97607629 592.22808828 -131.2788657 589.06693773 -135.65722656 581.73193359 C-139.8456035 572.58398131 -139.92037817 564.15050075 -139.890625 554.29296875 C-139.89956866 551.93861002 -139.91563481 549.58466611 -139.9420929 547.23043823 C-139.95681929 545.77911327 -139.96092508 544.32762536 -139.95231628 542.87625122 C-139.97643543 538.59996891 -140.64255821 535.1461571 -142.203125 531.16796875 C-142.88117188 531.09320312 -143.55921875 531.0184375 -144.2578125 530.94140625 C-153.2751764 529.66748503 -160.90720437 526.72628075 -166.578125 519.29296875 C-173.65853932 507.0631622 -173.60973953 494.12286457 -173.14404297 480.39697266 C-173.1132666 479.27597168 -173.08249023 478.1549707 -173.05078125 477 C-173.00961182 475.99686768 -172.96844238 474.99373535 -172.92602539 473.96020508 C-173.25735855 470.62147616 -174.1770448 468.82244624 -176.203125 466.16796875 C-179.26014339 465.0621195 -179.26014339 465.0621195 -182.765625 464.48046875 C-190.72525581 462.42876267 -195.45432445 458.85858653 -200.203125 452.16796875 C-204.00579479 444.2278029 -204.32323967 435.05076531 -204.34838867 426.38183594 C-204.35174728 425.6489183 -204.3551059 424.91600067 -204.35856628 424.16087341 C-204.36798604 421.76217913 -204.37001494 419.36355533 -204.37109375 416.96484375 C-204.3743129 415.2786659 -204.37767745 413.59248832 -204.38117981 411.90631104 C-204.38714892 408.37942864 -204.38902203 404.85257068 -204.38842773 401.32568359 C-204.38832632 396.83629291 -204.40196734 392.3470611 -204.41919994 387.85770798 C-204.43039314 384.3761322 -204.4323447 380.89459393 -204.43181801 377.41300201 C-204.43298755 375.75942692 -204.43735072 374.10585051 -204.44515038 372.4522934 C-204.56851841 343.59426106 -204.56851841 343.59426106 -196.515625 334.19921875 C-185.62488319 323.83544832 -173.10745343 324.58557505 -158.98046875 324.671875 C-156.90881805 324.67171981 -154.83716706 324.67022748 -152.76551819 324.66746521 C-148.43754132 324.66608546 -144.10989755 324.67856936 -139.78198242 324.70141602 C-134.2519579 324.72981688 -128.7224855 324.72705264 -123.19242001 324.7143259 C-118.91914709 324.70735086 -114.6460004 324.71517858 -110.37274361 324.72758293 C-108.33432055 324.73207843 -106.29588386 324.73245098 -104.25745964 324.72851753 C-101.40304941 324.7255869 -98.54938411 324.74219983 -95.69506836 324.76391602 C-94.86416687 324.75941437 -94.03326538 324.75491272 -93.17718506 324.75027466 C-87.39208135 324.82291111 -82.58023627 326.05650432 -77.203125 328.16796875 C-76.37202641 325.26311658 -76.07614501 322.68195099 -76.07004642 319.66439819 C-76.06580538 318.76163493 -76.06156433 317.85887167 -76.05719477 316.92875195 C-76.0575809 315.94083314 -76.05796703 314.95291433 -76.05836487 313.93505859 C-76.0530746 312.35617214 -76.0530746 312.35617214 -76.04767746 310.74538898 C-76.03697475 307.206557 -76.03330668 303.66775192 -76.02954102 300.12890625 C-76.02323678 297.59609361 -76.01647113 295.06328208 -76.00927734 292.5304718 C-75.99459591 287.06901237 -75.98279483 281.60755836 -75.97332954 276.14608765 C-75.95944413 268.23664062 -75.93825324 260.32722541 -75.91490101 252.41780126 C-75.87697861 239.56809249 -75.84201894 226.71837793 -75.81030273 213.86865234 C-75.807452 212.7149131 -75.807452 212.7149131 -75.80454367 211.537866 C-75.77774486 200.63647861 -75.75386249 189.73508676 -75.73115867 178.83369017 C-75.72956137 178.0669562 -75.72796406 177.30022223 -75.72631836 176.51025391 C-75.72472489 175.74445778 -75.72313143 174.97866166 -75.72148968 174.1896596 C-75.69467468 161.39771128 -75.66025355 148.6057967 -75.61966461 135.81388474 C-75.59495432 127.930533 -75.57659157 120.04721746 -75.566509 112.1638332 C-75.55820927 106.11253977 -75.53967961 100.06132135 -75.51744843 94.01006126 C-75.5099961 91.53499321 -75.50589327 89.05991238 -75.50545311 86.58483315 C-75.50436397 83.19537351 -75.49105681 79.80616454 -75.47486877 76.41674805 C-75.47748563 75.44667501 -75.48010248 74.47660198 -75.48279864 73.4771328 C-75.40487453 62.96832282 -74.86305564 50.25506396 -67.33984375 42.1640625 C-61.78694092 37.15494676 -56.94009767 34.22498366 -49.578125 32.66796875 C-44.84386922 31.41168081 -44.84386922 31.41168081 -41.90234375 27.81640625 C-41.46951649 25.93108504 -41.1004463 24.03023378 -40.7890625 22.12109375 C-39.59260901 16.09096818 -35.90322677 10.45365315 -31.453125 6.23046875 C-22.02964349 0.25018241 -10.84459339 0.01332926 0 0 Z M-27.203125 43.16796875 C-27.203125 193.64796875 -27.203125 344.12796875 -27.203125 499.16796875 C-37.763125 499.16796875 -48.323125 499.16796875 -59.203125 499.16796875 C-59.203125 466.82796875 -59.203125 434.48796875 -59.203125 401.16796875 C-70.093125 401.16796875 -80.983125 401.16796875 -92.203125 401.16796875 C-92.203125 390.60796875 -92.203125 380.04796875 -92.203125 369.16796875 C-113.323125 369.16796875 -134.443125 369.16796875 -156.203125 369.16796875 C-156.203125 390.28796875 -156.203125 411.40796875 -156.203125 433.16796875 C-145.643125 433.16796875 -135.083125 433.16796875 -124.203125 433.16796875 C-124.203125 454.61796875 -124.203125 476.06796875 -124.203125 498.16796875 C-113.643125 498.16796875 -103.083125 498.16796875 -92.203125 498.16796875 C-92.203125 519.94796875 -92.203125 541.72796875 -92.203125 564.16796875 C-81.313125 564.16796875 -70.423125 564.16796875 -59.203125 564.16796875 C-59.203125 585.61796875 -59.203125 607.06796875 -59.203125 629.16796875 C-48.643125 629.16796875 -38.083125 629.16796875 -27.203125 629.16796875 C-27.203125 650.61796875 -27.203125 672.06796875 -27.203125 694.16796875 C-16.313125 694.16796875 -5.423125 694.16796875 5.796875 694.16796875 C5.796875 715.61796875 5.796875 737.06796875 5.796875 759.16796875 C16.356875 759.16796875 26.916875 759.16796875 37.796875 759.16796875 C37.796875 769.72796875 37.796875 780.28796875 37.796875 791.16796875 C145.376875 791.16796875 252.956875 791.16796875 363.796875 791.16796875 C363.796875 758.82796875 363.796875 726.48796875 363.796875 693.16796875 C374.356875 693.16796875 384.916875 693.16796875 395.796875 693.16796875 C395.796875 650.26796875 395.796875 607.36796875 395.796875 563.16796875 C406.686875 563.16796875 417.576875 563.16796875 428.796875 563.16796875 C428.796875 509.70796875 428.796875 456.24796875 428.796875 401.16796875 C417.906875 401.16796875 407.016875 401.16796875 395.796875 401.16796875 C395.796875 390.60796875 395.796875 380.04796875 395.796875 369.16796875 C385.236875 369.16796875 374.676875 369.16796875 363.796875 369.16796875 C363.796875 401.17796875 363.796875 433.18796875 363.796875 466.16796875 C352.906875 466.16796875 342.016875 466.16796875 330.796875 466.16796875 C330.796875 423.26796875 330.796875 380.36796875 330.796875 336.16796875 C309.346875 336.16796875 287.896875 336.16796875 265.796875 336.16796875 C265.796875 368.17796875 265.796875 400.18796875 265.796875 433.16796875 C255.236875 433.16796875 244.676875 433.16796875 233.796875 433.16796875 C233.796875 390.26796875 233.796875 347.36796875 233.796875 303.16796875 C212.346875 303.16796875 190.896875 303.16796875 168.796875 303.16796875 C168.796875 335.50796875 168.796875 367.84796875 168.796875 401.16796875 C157.906875 401.16796875 147.016875 401.16796875 135.796875 401.16796875 C135.796875 358.26796875 135.796875 315.36796875 135.796875 271.16796875 C114.346875 271.16796875 92.896875 271.16796875 70.796875 271.16796875 C70.796875 314.06796875 70.796875 356.96796875 70.796875 401.16796875 C60.236875 401.16796875 49.676875 401.16796875 38.796875 401.16796875 C38.796875 283.02796875 38.796875 164.88796875 38.796875 43.16796875 C17.016875 43.16796875 -4.763125 43.16796875 -27.203125 43.16796875 Z " fill="#030303" transform="translate(207.203125,2.83203125)"/>
</svg>
